<svg width="152" height="24" viewBox="0 0 152 24" fill="none" xmlns="http://www.w3.org/2000/svg">
<path d="M4.448 19H0.344V6.088H4.112V7.672C5.096 6.52 6.152 5.848 7.832 5.848C9.464 5.848 10.76 6.544 11.48 7.84C12.584 6.592 13.736 5.848 15.632 5.848C18.2 5.848 20 7.552 20 10.696V19H15.896V11.968C15.896 10.48 15.296 9.544 14.12 9.544C13.088 9.544 12.224 10.264 12.224 11.992V19H8.12V11.968C8.12 10.48 7.52 9.544 6.344 9.544C5.288 9.544 4.448 10.264 4.448 11.992V19ZM31.3708 19.24C27.5548 19.24 24.6268 16.24 24.6268 12.544C24.6268 8.848 27.5548 5.848 31.3708 5.848C35.1868 5.848 38.1148 8.848 38.1148 12.544C38.1148 16.24 35.1868 19.24 31.3708 19.24ZM31.3708 15.568C32.6428 15.568 33.8428 14.56 33.8428 12.544C33.8428 10.528 32.6428 9.544 31.3708 9.544C30.0988 9.544 28.8988 10.528 28.8988 12.544C28.8988 14.56 30.0988 15.568 31.3708 15.568ZM42.0614 12.544C42.0614 8.8 44.3414 5.848 47.8214 5.848C49.1654 5.848 50.3174 6.328 51.3254 7.288V1.768H55.4294V19H51.6614V17.536C50.6054 18.64 49.3334 19.24 47.8214 19.24C44.3414 19.24 42.0614 16.24 42.0614 12.544ZM46.3334 12.544C46.3334 14.56 47.5574 15.544 48.8054 15.544C50.0774 15.544 51.2774 14.56 51.2774 12.52C51.2774 10.456 50.0534 9.544 48.8054 9.544C47.5574 9.544 46.3334 10.48 46.3334 12.544ZM68.5518 19V17.752C67.6398 18.784 66.5118 19.24 64.8558 19.24C62.1678 19.24 60.3678 17.632 60.3678 15.184C60.3678 12.664 62.4078 11.296 66.1038 11.296C66.7998 11.296 67.4478 11.344 67.9998 11.44V10.816C67.9998 9.688 67.3518 9.064 66.1998 9.064C65.0718 9.064 64.3998 9.688 64.2558 10.816H60.5598C60.7998 7.816 63.0318 5.848 66.2238 5.848C69.7758 5.848 71.8638 7.768 71.8638 11.032V19H68.5518ZM64.2318 15.064C64.2318 15.904 64.8078 16.408 65.8158 16.408C67.1838 16.408 67.9998 15.76 67.9998 14.704V13.888C67.3758 13.768 66.8958 13.72 66.3678 13.72C64.9758 13.72 64.2318 14.176 64.2318 15.064ZM81.4535 19H77.3015V1.768H81.4535V19ZM91.6813 3.088C91.6813 4.432 90.6013 5.416 89.0413 5.416C87.4813 5.416 86.4013 4.432 86.4013 3.088C86.4013 1.72 87.4813 0.735999 89.0413 0.735999C90.6013 0.735999 91.6813 1.72 91.6813 3.088ZM91.1293 19H87.0253V6.088H91.1293V19ZM105.366 14.968V18.544C104.454 19.048 103.59 19.24 102.438 19.24C99.5341 19.24 97.8301 17.512 97.8301 14.56V9.664H95.4301V6.088H97.8301V2.296H101.934V6.088H105.462V9.664H101.934V13.6C101.934 14.848 102.462 15.424 103.59 15.424C104.262 15.424 104.91 15.256 105.366 14.968ZM122.584 6.088L116.44 23.632H111.952L113.752 18.856L108.712 6.088H113.176L115.96 14.08L118.456 6.088H122.584ZM131.569 19H127.033V1.768H131.569V19ZM146.307 19H141.771V5.872H136.491V1.768H151.587V5.872H146.307V19Z" fill="black"/>
</svg>
